<svg width="16" height="16" viewBox="0 0 16 16" fill="none" xmlns="http://www.w3.org/2000/svg">
<g clip-path="url(#clip0_105_134)">
<path d="M8.99991 4.33327C8.99991 4.59848 8.89456 4.85284 8.70702 5.04038C8.51949 5.22791 8.26513 5.33327 7.99991 5.33327C7.7347 5.33327 7.48034 5.22791 7.29281 5.04038C7.10527 4.85284 6.99991 4.59848 6.99991 4.33327C6.99991 4.06805 7.10527 3.8137 7.29281 3.62616C7.48034 3.43862 7.7347 3.33327 7.99991 3.33327C8.26513 3.33327 8.51949 3.43862 8.70702 3.62616C8.89456 3.8137 8.99991 4.06805 8.99991 4.33327ZM15.9999 12.6666V8.2266C16.0248 6.17157 15.2713 4.1832 13.8908 2.66072C12.5103 1.13823 10.6049 0.194359 8.55725 0.018601C7.41435 -0.0613606 6.2676 0.105094 5.1946 0.506703C4.12161 0.908312 3.14738 1.5357 2.33786 2.34643C1.52833 3.15716 0.902381 4.13231 0.502363 5.2059C0.102345 6.2795 -0.062409 7.42649 0.0192468 8.56927C0.313913 12.8053 4.05458 15.9999 8.72191 15.9999H12.6666C13.5503 15.9989 14.3975 15.6473 15.0224 15.0225C15.6473 14.3976 15.9989 13.5503 15.9999 12.6666ZM8.46658 1.34927C10.1776 1.50063 11.7679 2.29387 12.918 3.56964C14.0681 4.8454 14.6928 6.50915 14.6666 8.2266V12.6666C14.6666 13.197 14.4559 13.7057 14.0808 14.0808C13.7057 14.4559 13.197 14.6666 12.6666 14.6666H8.72191C4.69925 14.6666 1.59991 12.0666 1.34991 8.47727C1.28428 7.56299 1.4079 6.645 1.71304 5.78065C2.01818 4.9163 2.49828 4.12415 3.12336 3.45372C3.74844 2.78328 4.50506 2.24894 5.34596 1.8841C6.18685 1.51926 7.09395 1.33174 8.01058 1.33327C8.16191 1.33327 8.31458 1.33927 8.46658 1.34927ZM9.33325 11.9999V7.99994C9.33325 7.64631 9.19277 7.30718 8.94272 7.05713C8.69267 6.80708 8.35354 6.6666 7.99991 6.6666H7.33325C7.15644 6.6666 6.98687 6.73684 6.86184 6.86186C6.73682 6.98689 6.66658 7.15646 6.66658 7.33327C6.66658 7.51008 6.73682 7.67965 6.86184 7.80467C6.98687 7.9297 7.15644 7.99994 7.33325 7.99994H7.99991V11.9999C7.99991 12.1767 8.07015 12.3463 8.19518 12.4713C8.3202 12.5964 8.48977 12.6666 8.66658 12.6666C8.84339 12.6666 9.01296 12.5964 9.13799 12.4713C9.26301 12.3463 9.33325 12.1767 9.33325 11.9999Z" fill="#3E4551"/>
</g>
<defs>
<clipPath id="clip0_105_134">
<rect width="16" height="16" fill="white"/>
</clipPath>
</defs>
</svg>
