<svg width="77" height="33" viewBox="0 0 77 33" fill="none" xmlns="http://www.w3.org/2000/svg">
<path d="M17.84 18.58C18.0133 18.58 18.1467 18.6667 18.24 18.84C18.3467 19 18.4 19.2067 18.4 19.46C18.4 19.7667 18.3533 20.0067 18.26 20.18C18.1667 20.3533 18.02 20.5067 17.82 20.64C17.0333 21.16 15.78 22.0133 14.06 23.2C13.54 25.96 12.8667 28.1333 12.04 29.72C11.2133 31.3067 10.1667 32.1 8.9 32.1C8.22 32.1 7.66667 31.8867 7.24 31.46C6.81333 31.0467 6.6 30.5 6.6 29.82C6.6 29.1933 6.74 28.56 7.02 27.92C7.3 27.28 7.82 26.54 8.58 25.7C9.35333 24.86 10.44 23.9 11.84 22.82L11.9 22.44C10.8467 22.88 9.81333 23.1 8.8 23.1C7.30667 23.1 5.99333 22.8133 4.86 22.24C3.72667 21.6533 2.84667 20.8267 2.22 19.76C1.59333 18.6933 1.28 17.4533 1.28 16.04C1.28 14.0667 1.65333 12.3267 2.4 10.82C3.14667 9.3 4.17333 8.12667 5.48 7.3C6.8 6.46 8.27333 6.04 9.9 6.04C11.46 6.04 12.6267 6.40667 13.4 7.14C14.1867 7.86 14.58 8.82 14.58 10.02C14.58 10.8067 14.4333 11.44 14.14 11.92C13.86 12.3867 13.4533 12.62 12.92 12.62C12.56 12.62 12.2667 12.5333 12.04 12.36C11.8267 12.1867 11.72 11.9467 11.72 11.64C11.72 11.5067 11.7467 11.28 11.8 10.96C11.88 10.5867 11.92 10.2933 11.92 10.08C11.92 9.52 11.7467 9.08667 11.4 8.78C11.0667 8.47333 10.5 8.32 9.7 8.32C8.72667 8.32 7.82 8.6 6.98 9.16C6.15333 9.72 5.48667 10.56 4.98 11.68C4.47333 12.7867 4.22 14.12 4.22 15.68C4.22 17.28 4.65333 18.52 5.52 19.4C6.4 20.2667 7.66667 20.7 9.32 20.7C10.24 20.7 11.2 20.4933 12.2 20.08L12.48 17.64H10.44C10.0667 17.64 9.78 17.5533 9.58 17.38C9.38 17.1933 9.28 16.8933 9.28 16.48C9.28 16.1067 9.38 15.8133 9.58 15.6C9.78 15.3867 10.0467 15.28 10.38 15.28H14.12C14.4133 15.28 14.6533 15.38 14.84 15.58C15.04 15.7667 15.12 16.04 15.08 16.4C15.04 16.8267 14.9067 17.7933 14.68 19.3L14.46 20.82C15.5267 20.02 16.5 19.3267 17.38 18.74C17.5533 18.6333 17.7067 18.58 17.84 18.58ZM9.12 30.16C9.46667 30.16 9.84667 29.7667 10.26 28.98C10.6733 28.1933 11.06 26.9267 11.42 25.18C10.4067 26.0467 9.67333 26.8267 9.22 27.52C8.78 28.2267 8.56 28.8467 8.56 29.38C8.56 29.9 8.74667 30.16 9.12 30.16ZM18.3761 23.1C17.8694 23.1 17.5094 22.8333 17.2961 22.3C17.0961 21.7667 16.9961 20.9133 16.9961 19.74C16.9961 18.0067 17.2428 16.36 17.7361 14.8C17.8561 14.4133 18.0494 14.1333 18.3161 13.96C18.5961 13.7733 18.9828 13.68 19.4761 13.68C19.7428 13.68 19.9294 13.7133 20.0361 13.78C20.1428 13.8467 20.1961 13.9733 20.1961 14.16C20.1961 14.3733 20.0961 14.8533 19.8961 15.6C19.7628 16.1333 19.6561 16.6 19.5761 17C19.4961 17.4 19.4294 17.8933 19.3761 18.48C19.8161 17.3333 20.3094 16.4 20.8561 15.68C21.4028 14.96 21.9361 14.4467 22.4561 14.14C22.9894 13.8333 23.4761 13.68 23.9161 13.68C24.7828 13.68 25.2161 14.1133 25.2161 14.98C25.2161 15.1533 25.1561 15.5733 25.0361 16.24C24.9294 16.7733 24.8761 17.1067 24.8761 17.24C24.8761 17.7067 25.0428 17.94 25.3761 17.94C25.7494 17.94 26.2294 17.6467 26.8161 17.06C26.9894 16.8867 27.1694 16.8 27.3561 16.8C27.5294 16.8 27.6628 16.88 27.7561 17.04C27.8628 17.1867 27.9161 17.3867 27.9161 17.64C27.9161 18.1333 27.7828 18.52 27.5161 18.8C27.1428 19.1867 26.7028 19.52 26.1961 19.8C25.7028 20.0667 25.1761 20.2 24.6161 20.2C23.9094 20.2 23.3694 20.02 22.9961 19.66C22.6361 19.3 22.4561 18.8133 22.4561 18.2C22.4561 18 22.4761 17.8 22.5161 17.6C22.5428 17.3333 22.5561 17.1533 22.5561 17.06C22.5561 16.8467 22.4828 16.74 22.3361 16.74C22.1361 16.74 21.8694 16.9667 21.5361 17.42C21.2161 17.86 20.8961 18.4467 20.5761 19.18C20.2561 19.9133 19.9961 20.6867 19.7961 21.5C19.6494 22.1267 19.4761 22.5533 19.2761 22.78C19.0894 22.9933 18.7894 23.1 18.3761 23.1ZM28.6777 12.36C28.1177 12.36 27.6977 12.2333 27.4177 11.98C27.1377 11.7133 26.9977 11.3467 26.9977 10.88C26.9977 10.4133 27.1777 10.0267 27.5377 9.72C27.911 9.4 28.371 9.24 28.9177 9.24C29.411 9.24 29.811 9.36 30.1177 9.6C30.4243 9.84 30.5777 10.18 30.5777 10.62C30.5777 11.1533 30.4043 11.58 30.0577 11.9C29.711 12.2067 29.251 12.36 28.6777 12.36ZM28.5177 23.1C27.651 23.1 27.0177 22.7933 26.6177 22.18C26.231 21.5667 26.0377 20.7533 26.0377 19.74C26.0377 19.14 26.111 18.3733 26.2577 17.44C26.4177 16.4933 26.6177 15.6133 26.8577 14.8C26.9777 14.3733 27.1377 14.08 27.3377 13.92C27.5377 13.76 27.8577 13.68 28.2977 13.68C28.9777 13.68 29.3177 13.9067 29.3177 14.36C29.3177 14.6933 29.191 15.4667 28.9377 16.68C28.6177 18.1467 28.4577 19.14 28.4577 19.66C28.4577 20.06 28.511 20.3667 28.6177 20.58C28.7243 20.7933 28.9043 20.9 29.1577 20.9C29.3977 20.9 29.6977 20.7333 30.0577 20.4C30.4177 20.0667 30.8977 19.54 31.4977 18.82C31.6577 18.6333 31.8377 18.54 32.0377 18.54C32.211 18.54 32.3443 18.62 32.4377 18.78C32.5443 18.94 32.5977 19.16 32.5977 19.44C32.5977 19.9733 32.471 20.3867 32.2177 20.68C30.8977 22.2933 29.6643 23.1 28.5177 23.1ZM32.3995 23.1C31.8929 23.1 31.5329 22.8333 31.3195 22.3C31.1195 21.7667 31.0195 20.9133 31.0195 19.74C31.0195 18.0067 31.2662 16.36 31.7595 14.8C31.8795 14.4133 32.0729 14.1333 32.3395 13.96C32.6195 13.7733 33.0062 13.68 33.4995 13.68C33.7662 13.68 33.9529 13.7133 34.0595 13.78C34.1662 13.8467 34.2195 13.9733 34.2195 14.16C34.2195 14.3733 34.1195 14.8533 33.9195 15.6C33.7862 16.1333 33.6795 16.6 33.5995 17C33.5195 17.3867 33.4529 17.8733 33.3995 18.46C33.7595 17.42 34.1862 16.54 34.6795 15.82C35.1862 15.1 35.6995 14.5667 36.2195 14.22C36.7529 13.86 37.2529 13.68 37.7195 13.68C38.1862 13.68 38.5129 13.7867 38.6995 14C38.8995 14.2133 38.9995 14.54 38.9995 14.98C38.9995 15.4067 38.8729 16.18 38.6195 17.3C38.5129 17.78 38.4395 18.14 38.3995 18.38C39.0662 16.74 39.8062 15.5467 40.6195 14.8C41.4329 14.0533 42.1929 13.68 42.8995 13.68C43.7662 13.68 44.1995 14.1133 44.1995 14.98C44.1995 15.5 44.0529 16.44 43.7595 17.8C43.5062 18.96 43.3795 19.7267 43.3795 20.1C43.3795 20.6333 43.5729 20.9 43.9595 20.9C44.2262 20.9 44.5395 20.74 44.8995 20.42C45.2729 20.0867 45.7662 19.5533 46.3795 18.82C46.5395 18.6333 46.7195 18.54 46.9195 18.54C47.0929 18.54 47.2262 18.62 47.3195 18.78C47.4262 18.94 47.4795 19.16 47.4795 19.44C47.4795 19.9733 47.3529 20.3867 47.0995 20.68C46.5262 21.3867 45.9062 21.9667 45.2395 22.42C44.5862 22.8733 43.8395 23.1 42.9995 23.1C42.3195 23.1 41.8062 22.9067 41.4595 22.52C41.1129 22.12 40.9395 21.5467 40.9395 20.8C40.9395 20.4267 41.0329 19.76 41.2195 18.8C41.3929 17.96 41.4795 17.38 41.4795 17.06C41.4795 16.8467 41.4062 16.74 41.2595 16.74C41.0862 16.74 40.8395 16.9667 40.5195 17.42C40.1995 17.86 39.8795 18.4467 39.5595 19.18C39.2395 19.9133 38.9795 20.6867 38.7795 21.5C38.6329 22.14 38.4595 22.5667 38.2595 22.78C38.0729 22.9933 37.7662 23.1 37.3395 23.1C36.8995 23.1 36.5662 22.8933 36.3395 22.48C36.1262 22.0533 36.0195 21.54 36.0195 20.94C36.0195 20.4333 36.0862 19.7 36.2195 18.74C36.3262 17.8867 36.3795 17.3267 36.3795 17.06C36.3795 16.8467 36.3062 16.74 36.1595 16.74C35.9595 16.74 35.7062 16.98 35.3995 17.46C35.0929 17.94 34.7929 18.5533 34.4995 19.3C34.2195 20.0467 33.9929 20.78 33.8195 21.5C33.6729 22.1267 33.4995 22.5533 33.2995 22.78C33.1129 22.9933 32.8129 23.1 32.3995 23.1ZM56.0623 16.86C56.2357 16.86 56.369 16.9467 56.4623 17.12C56.5557 17.2933 56.6023 17.5133 56.6023 17.78C56.6023 18.42 56.409 18.8 56.0223 18.92C55.2223 19.2 54.3423 19.36 53.3823 19.4C53.129 20.52 52.629 21.42 51.8823 22.1C51.1357 22.7667 50.289 23.1 49.3423 23.1C48.5423 23.1 47.8557 22.9067 47.2823 22.52C46.7223 22.1333 46.2957 21.62 46.0023 20.98C45.709 20.34 45.5623 19.6467 45.5623 18.9C45.5623 17.8867 45.7557 16.9867 46.1423 16.2C46.529 15.4 47.0623 14.78 47.7423 14.34C48.4223 13.8867 49.1757 13.66 50.0023 13.66C51.0157 13.66 51.829 14.0133 52.4423 14.72C53.069 15.4133 53.4357 16.2733 53.5423 17.3C54.169 17.26 54.9157 17.1267 55.7823 16.9C55.889 16.8733 55.9823 16.86 56.0623 16.86ZM49.5023 20.98C49.929 20.98 50.2957 20.8067 50.6023 20.46C50.9223 20.1133 51.1357 19.6133 51.2423 18.96C50.829 18.68 50.509 18.3133 50.2823 17.86C50.069 17.4067 49.9623 16.9267 49.9623 16.42C49.9623 16.2067 49.9823 15.9933 50.0223 15.78H49.9223C49.389 15.78 48.9423 16.04 48.5823 16.56C48.2357 17.0667 48.0623 17.7867 48.0623 18.72C48.0623 19.4533 48.2023 20.0133 48.4823 20.4C48.7757 20.7867 49.1157 20.98 49.5023 20.98ZM57.5058 12.36C56.9458 12.36 56.5258 12.2333 56.2458 11.98C55.9658 11.7133 55.8258 11.3467 55.8258 10.88C55.8258 10.4133 56.0058 10.0267 56.3658 9.72C56.7391 9.4 57.1991 9.24 57.7458 9.24C58.2391 9.24 58.6391 9.36 58.9458 9.6C59.2524 9.84 59.4058 10.18 59.4058 10.62C59.4058 11.1533 59.2324 11.58 58.8858 11.9C58.5391 12.2067 58.0791 12.36 57.5058 12.36ZM57.3458 23.1C56.4791 23.1 55.8458 22.7933 55.4458 22.18C55.0591 21.5667 54.8658 20.7533 54.8658 19.74C54.8658 19.14 54.9391 18.3733 55.0858 17.44C55.2458 16.4933 55.4458 15.6133 55.6858 14.8C55.8058 14.3733 55.9658 14.08 56.1658 13.92C56.3658 13.76 56.6858 13.68 57.1258 13.68C57.8058 13.68 58.1458 13.9067 58.1458 14.36C58.1458 14.6933 58.0191 15.4667 57.7658 16.68C57.4458 18.1467 57.2858 19.14 57.2858 19.66C57.2858 20.06 57.3391 20.3667 57.4458 20.58C57.5524 20.7933 57.7324 20.9 57.9858 20.9C58.2258 20.9 58.5258 20.7333 58.8858 20.4C59.2458 20.0667 59.7258 19.54 60.3258 18.82C60.4858 18.6333 60.6658 18.54 60.8658 18.54C61.0391 18.54 61.1724 18.62 61.2658 18.78C61.3724 18.94 61.4258 19.16 61.4258 19.44C61.4258 19.9733 61.2991 20.3867 61.0458 20.68C59.7258 22.2933 58.4924 23.1 57.3458 23.1ZM61.2277 23.1C60.721 23.1 60.361 22.8333 60.1477 22.3C59.9477 21.7667 59.8477 20.9133 59.8477 19.74C59.8477 18.0067 60.0943 16.36 60.5877 14.8C60.7077 14.4133 60.901 14.1333 61.1677 13.96C61.4477 13.7733 61.8343 13.68 62.3277 13.68C62.5943 13.68 62.781 13.7133 62.8877 13.78C62.9943 13.8467 63.0477 13.9733 63.0477 14.16C63.0477 14.3733 62.9477 14.8533 62.7477 15.6C62.6143 16.1333 62.5077 16.6 62.4277 17C62.3477 17.4 62.281 17.8933 62.2277 18.48C62.6677 17.3333 63.161 16.4 63.7077 15.68C64.2543 14.96 64.7877 14.4467 65.3077 14.14C65.841 13.8333 66.3277 13.68 66.7677 13.68C67.6343 13.68 68.0677 14.1133 68.0677 14.98C68.0677 15.1533 68.0077 15.5733 67.8877 16.24C67.781 16.7733 67.7277 17.1067 67.7277 17.24C67.7277 17.7067 67.8943 17.94 68.2277 17.94C68.601 17.94 69.081 17.6467 69.6677 17.06C69.841 16.8867 70.021 16.8 70.2077 16.8C70.381 16.8 70.5143 16.88 70.6077 17.04C70.7143 17.1867 70.7677 17.3867 70.7677 17.64C70.7677 18.1333 70.6343 18.52 70.3677 18.8C69.9943 19.1867 69.5543 19.52 69.0477 19.8C68.5543 20.0667 68.0277 20.2 67.4677 20.2C66.761 20.2 66.221 20.02 65.8477 19.66C65.4877 19.3 65.3077 18.8133 65.3077 18.2C65.3077 18 65.3277 17.8 65.3677 17.6C65.3943 17.3333 65.4077 17.1533 65.4077 17.06C65.4077 16.8467 65.3343 16.74 65.1877 16.74C64.9877 16.74 64.721 16.9667 64.3877 17.42C64.0677 17.86 63.7477 18.4467 63.4277 19.18C63.1077 19.9133 62.8477 20.6867 62.6477 21.5C62.501 22.1267 62.3277 22.5533 62.1277 22.78C61.941 22.9933 61.641 23.1 61.2277 23.1ZM76.0692 19.14C76.2426 19.14 76.3759 19.22 76.4692 19.38C76.5759 19.54 76.6292 19.76 76.6292 20.04C76.6292 20.52 76.5159 20.9333 76.2892 21.28C75.9159 21.8533 75.4226 22.3 74.8092 22.62C74.2092 22.94 73.4892 23.1 72.6492 23.1C71.3692 23.1 70.3759 22.72 69.6692 21.96C68.9626 21.1867 68.6092 20.1467 68.6092 18.84C68.6092 17.92 68.8026 17.0667 69.1892 16.28C69.5759 15.48 70.1092 14.8467 70.7892 14.38C71.4826 13.9133 72.2626 13.68 73.1292 13.68C73.9026 13.68 74.5226 13.9133 74.9892 14.38C75.4559 14.8333 75.6892 15.4533 75.6892 16.24C75.6892 17.16 75.3559 17.9533 74.6892 18.62C74.0359 19.2733 72.9159 19.7933 71.3292 20.18C71.6492 20.7933 72.1892 21.1 72.9492 21.1C73.4959 21.1 73.9426 20.9733 74.2892 20.72C74.6492 20.4667 75.0626 20.04 75.5292 19.44C75.6892 19.24 75.8692 19.14 76.0692 19.14ZM72.7892 15.64C72.2959 15.64 71.8759 15.9267 71.5292 16.5C71.1959 17.0733 71.0292 17.7667 71.0292 18.58V18.62C71.8159 18.4333 72.4359 18.1533 72.8892 17.78C73.3426 17.4067 73.5692 16.9733 73.5692 16.48C73.5692 16.2267 73.4959 16.0267 73.3492 15.88C73.2159 15.72 73.0292 15.64 72.7892 15.64Z" fill="#8451EE"/>
</svg>
